<svg width="33" height="33" viewBox="0 0 33 33" fill="none" xmlns="http://www.w3.org/2000/svg">
  <!-- Fond transparent -->
  <rect width="33" height="33" fill="none"/>
  <g id="Accueil V3" clip-path="url(#clip0_67_9)">
    <!-- Rectangle de fond transparent -->
    <rect width="1920" height="8048" transform="translate(-818 -677)" fill="none"/>
    <g id="Hero Gradient">
      <g id="Hero blanc">
        <g id="Frame 10">
          <!-- Rectangle de fond transparent -->
          <rect width="1920" height="1080" transform="translate(-818 -677)" fill="none"/>
          <g id="Frame 8">
            <g id="btn">
              <!-- Contour du bouton bleu -->
              <path d="M17 -7.5H266C279.255 -7.5 290 3.24517 290 16.5C290 29.7548 279.255 40.5 266 40.5H17C3.74517 40.5 -7 29.7548 -7 16.5C-7 3.24517 3.74517 -7.5 17 -7.5Z" stroke="#0000FF"/>
              <g id="Group 5">
                <!-- Ellipse blanche -->
                <ellipse id="Ellipse 2" cx="16.5" cy="16.5" rx="16" ry="16.5" fill="#FFFFFF"/>
                <!-- Flèche en orange (#ffbd4e) -->
                <path id="Arrow 1" d="M24.7106 17.0303C25.0035 16.7374 25.0035 16.2626 24.7106 15.9697L19.9377 11.1967C19.6448 10.9038 19.1699 10.9038 18.877 11.1967C18.5841 11.4896 18.5841 11.9645 18.877 12.2574L23.1197 16.5L18.877 20.7426C18.5841 21.0355 18.5841 21.5104 18.877 21.8033C19.1699 22.0962 19.6448 22.0962 19.9377 21.8033L24.7106 17.0303ZM8.82031 17.25L24.1803 17.25L24.1803 15.75L8.82031 15.75L8.82031 17.25Z" fill="#ffbd4e"/>
              </g>
            </g>
          </g>
        </g>
      </g>
    </g>
  </g>
  <defs>
    <linearGradient id="paint0_linear_67_9" x1="984" y1="171.5" x2="984" y2="888.5" gradientUnits="userSpaceOnUse">
      <stop offset="0.415" stop-color="none"/>
      <stop offset="0.95" stop-color="none"/>
    </linearGradient>
    <clipPath id="clip0_67_9">
      <rect width="1920" height="8048" fill="white" transform="translate(-818 -677)"/>
    </clipPath>
  </defs>
</svg>
